<svg width="103" height="18" viewBox="0 0 103 18" fill="none" xmlns="http://www.w3.org/2000/svg">
<path fill-rule="evenodd" clip-rule="evenodd" d="M6.44333 3.56897C5.48042 3.56897 4.69984 2.77003 4.69984 1.78448C4.69984 0.79894 5.48042 0 6.44333 0C7.40623 0 8.18681 0.79894 8.18681 1.78448C8.18681 2.77003 7.40623 3.56897 6.44333 3.56897ZM6.44333 8.37931C5.48042 8.37931 4.69984 7.58037 4.69984 6.59483C4.69984 5.60928 5.48042 4.81034 6.44333 4.81034C7.40623 4.81034 8.18681 5.60928 8.18681 6.59483C8.18681 7.58037 7.40623 8.37931 6.44333 8.37931ZM11.1432 8.37931C10.1803 8.37931 9.39967 7.58037 9.39967 6.59483C9.39967 5.60928 10.1803 4.81034 11.1432 4.81034C12.1061 4.81034 12.8867 5.60928 12.8867 6.59483C12.8867 7.58037 12.1061 8.37931 11.1432 8.37931ZM11.1432 13.1897C10.1803 13.1897 9.39967 12.3907 9.39967 11.4052C9.39967 10.4196 10.1803 9.62069 11.1432 9.62069C12.1061 9.62069 12.8867 10.4196 12.8867 11.4052C12.8867 12.3907 12.1061 13.1897 11.1432 13.1897ZM15.843 13.1897C14.8801 13.1897 14.0995 12.3907 14.0995 11.4052C14.0995 10.4196 14.8801 9.62069 15.843 9.62069C16.8059 9.62069 17.5865 10.4196 17.5865 11.4052C17.5865 12.3907 16.8059 13.1897 15.843 13.1897ZM20.5428 13.1897C19.5799 13.1897 18.7993 12.3907 18.7993 11.4052C18.7993 10.4196 19.5799 9.62069 20.5428 9.62069C21.5057 9.62069 22.2863 10.4196 22.2863 11.4052C22.2863 12.3907 21.5057 13.1897 20.5428 13.1897ZM20.5428 8.37931C19.5799 8.37931 18.7993 7.58037 18.7993 6.59483C18.7993 5.60928 19.5799 4.81034 20.5428 4.81034C21.5057 4.81034 22.2863 5.60928 22.2863 6.59483C22.2863 7.58037 21.5057 8.37931 20.5428 8.37931ZM25.2427 8.37931C24.2798 8.37931 23.4992 7.58037 23.4992 6.59483C23.4992 5.60928 24.2798 4.81034 25.2427 4.81034C26.2056 4.81034 26.9862 5.60928 26.9862 6.59483C26.9862 7.58037 26.2056 8.37931 25.2427 8.37931ZM25.2427 3.56897C24.2798 3.56897 23.4992 2.77003 23.4992 1.78448C23.4992 0.79894 24.2798 0 25.2427 0C26.2056 0 26.9862 0.79894 26.9862 1.78448C26.9862 2.77003 26.2056 3.56897 25.2427 3.56897ZM25.2427 13.1897C24.2798 13.1897 23.4992 12.3907 23.4992 11.4052C23.4992 10.4196 24.2798 9.62069 25.2427 9.62069C26.2056 9.62069 26.9862 10.4196 26.9862 11.4052C26.9862 12.3907 26.2056 13.1897 25.2427 13.1897ZM25.2427 18C24.2798 18 23.4992 17.2011 23.4992 16.2155C23.4992 15.23 24.2798 14.431 25.2427 14.431C26.2056 14.431 26.9862 15.23 26.9862 16.2155C26.9862 17.2011 26.2056 18 25.2427 18ZM6.44333 13.1897C5.48042 13.1897 4.69984 12.3907 4.69984 11.4052C4.69984 10.4196 5.48042 9.62069 6.44333 9.62069C7.40623 9.62069 8.18681 10.4196 8.18681 11.4052C8.18681 12.3907 7.40623 13.1897 6.44333 13.1897ZM1.74349 13.1897C0.780586 13.1897 0 12.3907 0 11.4052C0 10.4196 0.780586 9.62069 1.74349 9.62069C2.70639 9.62069 3.48698 10.4196 3.48698 11.4052C3.48698 12.3907 2.70639 13.1897 1.74349 13.1897ZM29.9425 13.1897C28.9796 13.1897 28.199 12.3907 28.199 11.4052C28.199 10.4196 28.9796 9.62069 29.9425 9.62069C30.9054 9.62069 31.686 10.4196 31.686 11.4052C31.686 12.3907 30.9054 13.1897 29.9425 13.1897ZM6.44333 18C5.48042 18 4.69984 17.2011 4.69984 16.2155C4.69984 15.23 5.48042 14.431 6.44333 14.431C7.40623 14.431 8.18681 15.23 8.18681 16.2155C8.18681 17.2011 7.40623 18 6.44333 18Z" fill="#81879C"/>
<path d="M42.9594 14.3567H38.3477V3.5721H42.447C43.1604 3.5721 43.7733 3.65953 44.2857 3.83439C44.8081 4.00924 45.195 4.24581 45.4462 4.5441C45.9284 5.09953 46.1696 5.72696 46.1696 6.42639C46.1696 7.26982 45.9083 7.89724 45.3859 8.30867C45.195 8.45267 45.0644 8.54524 44.994 8.58639C44.9237 8.61724 44.7981 8.67381 44.6172 8.7561C45.2703 8.9001 45.7878 9.20353 46.1696 9.66639C46.5614 10.119 46.7573 10.6847 46.7573 11.3635C46.7573 12.1144 46.5062 12.7778 46.0038 13.3538C45.411 14.0224 44.3962 14.3567 42.9594 14.3567ZM40.126 8.04639H42.3867C43.6728 8.04639 44.3158 7.59896 44.3158 6.7041C44.3158 6.18981 44.1601 5.81953 43.8486 5.59324C43.5371 5.36696 43.0549 5.25381 42.4018 5.25381H40.126V8.04639ZM40.126 12.675H42.9142C43.5673 12.675 44.0646 12.5721 44.4062 12.3664C44.7579 12.1504 44.9337 11.7492 44.9337 11.163C44.9337 10.2064 44.1852 9.7281 42.6881 9.7281H40.126V12.675Z" fill="#81879C"/>
<path d="M58.9055 7.07439C58.9055 8.85382 58.1469 9.97496 56.6297 10.4378L59.3878 14.3567H57.1271L54.6102 10.731H52.2742V14.3567H50.4958V3.5721H54.4143C56.0219 3.5721 57.1723 3.84981 57.8656 4.40524C58.5589 4.96067 58.9055 5.85039 58.9055 7.07439ZM54.4896 9.0801C55.4944 9.0801 56.1776 8.92067 56.5393 8.60181C56.901 8.28296 57.0819 7.77382 57.0819 7.07439C57.0819 6.36467 56.896 5.88124 56.5242 5.6241C56.1525 5.35667 55.4894 5.22296 54.5349 5.22296H52.2742V9.0801H54.4896Z" fill="#81879C"/>
<path d="M62.9677 3.5721H64.7461V14.3567H62.9677V3.5721Z" fill="#81879C"/>
<path d="M72.7869 3.5721C74.6758 3.5721 76.1277 4.04524 77.1425 4.99153C78.1573 5.92753 78.6647 7.23381 78.6647 8.91039C78.6647 10.587 78.1723 11.9138 77.1877 12.891C76.2031 13.8681 74.6959 14.3567 72.6664 14.3567H69.1699V3.5721H72.7869ZM76.8712 8.95667C76.8712 6.4881 75.4897 5.25381 72.7266 5.25381H70.9483V12.6441H72.9226C74.1986 12.6441 75.1732 12.3355 75.8464 11.7184C76.5296 11.091 76.8712 10.1704 76.8712 8.95667Z" fill="#81879C"/>
<path d="M89.7604 9.11096H91.5388V12.7984C90.5441 13.9195 89.1224 14.4801 87.2737 14.4801C85.7163 14.4801 84.4102 13.9555 83.3552 12.9064C82.3103 11.8572 81.7878 10.5304 81.7878 8.92581C81.7878 7.32124 82.3203 5.9841 83.3853 4.91439C84.4604 3.84467 85.7565 3.30981 87.2737 3.30981C88.7908 3.30981 90.0518 3.76239 91.0565 4.66753L90.1071 6.0561C89.6951 5.6961 89.2782 5.44924 88.8562 5.31553C88.4442 5.17153 87.9619 5.09953 87.4093 5.09953C86.3443 5.09953 85.4501 5.45439 84.7267 6.1641C84.0033 6.86353 83.6416 7.78924 83.6416 8.94124C83.6416 10.083 83.9932 11.0035 84.6965 11.703C85.3998 12.3921 86.2489 12.7367 87.2435 12.7367C88.2483 12.7367 89.0872 12.5155 89.7604 12.0732V9.11096Z" fill="#81879C"/>
<path d="M102.779 3.5721V5.28467H97.1579V8.13896H102.207V9.75896H97.1579V12.6441H102.96V14.3567H95.3795V3.5721H102.779Z" fill="#81879C"/>
</svg>
