<svg width="143" height="25" viewBox="0 0 143 25" fill="none" xmlns="http://www.w3.org/2000/svg">
<path fill-rule="evenodd" clip-rule="evenodd" d="M8.94906 4.9569C7.6117 4.9569 6.52755 3.84726 6.52755 2.47845C6.52755 1.10964 7.6117 0 8.94906 0C10.2864 0 11.3706 1.10964 11.3706 2.47845C11.3706 3.84726 10.2864 4.9569 8.94906 4.9569ZM8.94906 11.6379C7.6117 11.6379 6.52755 10.5283 6.52755 9.15948C6.52755 7.79067 7.6117 6.68103 8.94906 6.68103C10.2864 6.68103 11.3706 7.79067 11.3706 9.15948C11.3706 10.5283 10.2864 11.6379 8.94906 11.6379ZM15.4766 11.6379C14.1393 11.6379 13.0551 10.5283 13.0551 9.15948C13.0551 7.79067 14.1393 6.68103 15.4766 6.68103C16.814 6.68103 17.8981 7.79067 17.8981 9.15948C17.8981 10.5283 16.814 11.6379 15.4766 11.6379ZM15.4766 18.319C14.1393 18.319 13.0551 17.2093 13.0551 15.8405C13.0551 14.4717 14.1393 13.3621 15.4766 13.3621C16.814 13.3621 17.8981 14.4717 17.8981 15.8405C17.8981 17.2093 16.814 18.319 15.4766 18.319ZM22.0042 18.319C20.6668 18.319 19.5827 17.2093 19.5827 15.8405C19.5827 14.4717 20.6668 13.3621 22.0042 13.3621C23.3415 13.3621 24.4257 14.4717 24.4257 15.8405C24.4257 17.2093 23.3415 18.319 22.0042 18.319ZM28.5317 18.319C27.1944 18.319 26.1102 17.2093 26.1102 15.8405C26.1102 14.4717 27.1944 13.3621 28.5317 13.3621C29.8691 13.3621 30.9532 14.4717 30.9532 15.8405C30.9532 17.2093 29.8691 18.319 28.5317 18.319ZM28.5317 11.6379C27.1944 11.6379 26.1102 10.5283 26.1102 9.15948C26.1102 7.79067 27.1944 6.68103 28.5317 6.68103C29.8691 6.68103 30.9532 7.79067 30.9532 9.15948C30.9532 10.5283 29.8691 11.6379 28.5317 11.6379ZM35.0593 11.6379C33.7219 11.6379 32.6378 10.5283 32.6378 9.15948C32.6378 7.79067 33.7219 6.68103 35.0593 6.68103C36.3966 6.68103 37.4808 7.79067 37.4808 9.15948C37.4808 10.5283 36.3966 11.6379 35.0593 11.6379ZM35.0593 4.9569C33.7219 4.9569 32.6378 3.84726 32.6378 2.47845C32.6378 1.10964 33.7219 0 35.0593 0C36.3966 0 37.4808 1.10964 37.4808 2.47845C37.4808 3.84726 36.3966 4.9569 35.0593 4.9569ZM35.0593 18.319C33.7219 18.319 32.6378 17.2093 32.6378 15.8405C32.6378 14.4717 33.7219 13.3621 35.0593 13.3621C36.3966 13.3621 37.4808 14.4717 37.4808 15.8405C37.4808 17.2093 36.3966 18.319 35.0593 18.319ZM35.0593 25C33.7219 25 32.6378 23.8904 32.6378 22.5216C32.6378 21.1527 33.7219 20.0431 35.0593 20.0431C36.3966 20.0431 37.4808 21.1527 37.4808 22.5216C37.4808 23.8904 36.3966 25 35.0593 25ZM8.94906 18.319C7.6117 18.319 6.52755 17.2093 6.52755 15.8405C6.52755 14.4717 7.6117 13.3621 8.94906 13.3621C10.2864 13.3621 11.3706 14.4717 11.3706 15.8405C11.3706 17.2093 10.2864 18.319 8.94906 18.319ZM2.42151 18.319C1.08415 18.319 0 17.2093 0 15.8405C0 14.4717 1.08415 13.3621 2.42151 13.3621C3.75887 13.3621 4.84302 14.4717 4.84302 15.8405C4.84302 17.2093 3.75887 18.319 2.42151 18.319ZM41.5868 18.319C40.2495 18.319 39.1653 17.2093 39.1653 15.8405C39.1653 14.4717 40.2495 13.3621 41.5868 13.3621C42.9242 13.3621 44.0083 14.4717 44.0083 15.8405C44.0083 17.2093 42.9242 18.319 41.5868 18.319ZM8.94906 25C7.6117 25 6.52755 23.8904 6.52755 22.5216C6.52755 21.1527 7.6117 20.0431 8.94906 20.0431C10.2864 20.0431 11.3706 21.1527 11.3706 22.5216C11.3706 23.8904 10.2864 25 8.94906 25Z" fill="#0038FF"/>
<path d="M59.6655 19.9399H53.2603V4.96133H58.9538C59.9446 4.96133 60.7958 5.08276 61.5075 5.32562C62.2332 5.56847 62.7704 5.89705 63.1193 6.31133C63.7891 7.08276 64.124 7.95419 64.124 8.92562C64.124 10.097 63.7612 10.9685 63.0355 11.5399C62.7704 11.7399 62.589 11.8685 62.4913 11.9256C62.3936 11.9685 62.2192 12.047 61.968 12.1613C62.8751 12.3613 63.5937 12.7828 64.124 13.4256C64.6683 14.0542 64.9404 14.8399 64.9404 15.7828C64.9404 16.8256 64.5915 17.747 63.8938 18.547C63.0704 19.4756 61.661 19.9399 59.6655 19.9399ZM55.7302 11.1756H58.8701C60.6563 11.1756 61.5494 10.5542 61.5494 9.31133C61.5494 8.59705 61.3331 8.08276 60.9005 7.76847C60.4679 7.45419 59.798 7.29705 58.891 7.29705H55.7302V11.1756ZM55.7302 17.6042H59.6027C60.5097 17.6042 61.2005 17.4613 61.675 17.1756C62.1634 16.8756 62.4076 16.3185 62.4076 15.5042C62.4076 14.1756 61.368 13.5113 59.2887 13.5113H55.7302V17.6042Z" fill="#0D1531"/>
<path d="M81.8128 9.82562C81.8128 12.297 80.7592 13.8542 78.652 14.497L82.4826 19.9399H79.3428L75.8471 14.9042H72.6027V19.9399H70.1327V4.96133H75.575C77.8078 4.96133 79.4056 5.34705 80.3685 6.11847C81.3314 6.8899 81.8128 8.12562 81.8128 9.82562ZM75.6797 12.6113C77.0752 12.6113 78.0241 12.3899 78.5265 11.947C79.0288 11.5042 79.28 10.797 79.28 9.82562C79.28 8.8399 79.0218 8.16848 78.5055 7.81133C77.9892 7.4399 77.0682 7.25419 75.7425 7.25419H72.6027V12.6113H75.6797Z" fill="#0D1531"/>
<path d="M87.4548 4.96133H89.9248V19.9399H87.4548V4.96133Z" fill="#0D1531"/>
<path d="M101.093 4.96133C103.716 4.96133 105.733 5.61847 107.142 6.93276C108.551 8.23276 109.256 10.047 109.256 12.3756C109.256 14.7042 108.572 16.547 107.205 17.9042C105.837 19.2613 103.744 19.9399 100.925 19.9399H96.0689V4.96133H101.093ZM106.765 12.4399C106.765 9.01133 104.846 7.29705 101.009 7.29705H98.5389V17.5613H101.281C103.053 17.5613 104.407 17.1328 105.342 16.2756C106.291 15.4042 106.765 14.1256 106.765 12.4399Z" fill="#0D1531"/>
<path d="M124.667 12.6542H127.137V17.7756C125.755 19.3328 123.781 20.1113 121.213 20.1113C119.05 20.1113 117.236 19.3828 115.771 17.9256C114.319 16.4685 113.594 14.6256 113.594 12.397C113.594 10.1685 114.333 8.31133 115.813 6.82562C117.306 5.3399 119.106 4.59705 121.213 4.59705C123.32 4.59705 125.072 5.22562 126.467 6.48276L125.148 8.41133C124.576 7.91133 123.997 7.56848 123.411 7.38276C122.839 7.18276 122.169 7.08276 121.401 7.08276C119.922 7.08276 118.68 7.57562 117.676 8.56133C116.671 9.53276 116.168 10.8185 116.168 12.4185C116.168 14.0042 116.657 15.2828 117.634 16.2542C118.611 17.2113 119.79 17.6899 121.171 17.6899C122.567 17.6899 123.732 17.3828 124.667 16.7685V12.6542Z" fill="#0D1531"/>
<path d="M142.749 4.96133V7.3399H134.941V11.3042H141.953V13.5542H134.941V17.5613H143V19.9399H132.471V4.96133H142.749Z" fill="#0D1531"/>
</svg>
