<svg width="208" height="144" viewBox="0 0 208 144" fill="none" xmlns="http://www.w3.org/2000/svg">
<circle cx="50.9394" cy="90.9871" r="24.6894" fill="#EBB449"/>
<circle cx="153.102" cy="26.284" r="11.0677" fill="#EB7171"/>
<circle cx="161.616" cy="125.042" r="9.36495" fill="#86CF97"/>
<path d="M162.907 79.1138C156.389 107.009 128.491 124.338 100.596 117.819C72.7013 111.301 55.3722 83.4034 61.8906 55.5084C68.4091 27.6134 96.3067 10.2843 124.202 16.8027C152.097 23.3212 169.426 51.2188 162.907 79.1138Z" fill="#628AFF"/>
<path d="M98.9473 64.1679C101.424 64.7466 103.9 63.2082 104.479 60.7318C105.058 58.2554 103.519 55.7788 101.043 55.2001C98.5665 54.6214 96.0899 56.1598 95.5112 58.6362C94.9325 61.1126 96.4709 63.5892 98.9473 64.1679Z" fill="white"/>
<path d="M106.818 91.2274C98.3327 89.2445 92.485 82.0597 91.9857 74.0026C91.9749 73.7638 92.02 73.5257 92.1175 73.3074C92.2149 73.0891 92.362 72.8966 92.5471 72.7452C92.7321 72.5938 92.9499 72.4878 93.1832 72.4355C93.4165 72.3832 93.6587 72.3861 93.8907 72.444L126.715 80.1142C126.948 80.1651 127.167 80.2699 127.353 80.4202C127.539 80.5704 127.687 80.762 127.786 80.9798C127.885 81.1975 127.931 81.4352 127.922 81.6741C127.912 81.913 127.847 82.1464 127.732 82.3557C123.732 89.3615 115.304 93.2104 106.818 91.2274Z" fill="white"/>
<path d="M125.851 70.4546C128.327 71.0333 130.804 69.4949 131.382 67.0185C131.961 64.5421 130.423 62.0655 127.946 61.4868C125.47 60.9081 122.993 62.4466 122.415 64.9229C121.836 67.3993 123.374 69.876 125.851 70.4546Z" fill="white"/>
<path fill-rule="evenodd" clip-rule="evenodd" d="M120.781 31.44C100.97 26.8106 81.1572 39.1178 76.5278 58.9289C71.8983 78.7401 84.2055 98.5531 104.017 103.183C123.828 107.812 143.641 95.5048 148.27 75.6936C152.9 55.8825 140.593 36.0694 120.781 31.44ZM70.5492 57.5319C75.9502 34.4189 99.0654 20.0605 122.178 25.4615C145.291 30.8625 159.65 53.9777 154.249 77.0907C148.848 100.204 125.733 114.562 102.62 109.161C79.5066 103.76 65.1482 80.6449 70.5492 57.5319Z" fill="white"/>
<path d="M55.6502 36.1111C55.3398 35.7616 54.9585 35.4754 54.5276 35.2684C54.0963 35.0606 53.624 34.9348 53.1365 34.898C52.6308 34.8591 52.1186 34.9164 51.6295 35.0665C50.9429 35.2755 50.3268 35.6563 49.8463 36.1674C49.7313 36.2896 49.6257 36.4176 49.5295 36.5514C49.375 36.4939 49.216 36.4465 49.0524 36.4091C48.3686 36.2525 47.6449 36.2797 46.9583 36.4888C46.4639 36.6393 46.0119 36.8742 45.6131 37.1888C45.2276 37.4921 44.908 37.8569 44.6644 38.2716C44.4215 38.6833 44.2644 39.1336 44.202 39.5968C44.1372 40.0787 44.175 40.5578 44.3157 41.0199C44.4485 41.4559 44.6815 41.8813 45.0102 42.2862C45.2852 42.6245 45.6328 42.9564 46.0443 43.2732C46.696 43.7743 47.5274 44.2507 48.5134 44.69C50.1475 45.4185 51.6634 45.8038 51.7273 45.8187L52.1179 45.9172C52.2909 45.9603 52.4789 45.9031 52.5984 45.7709L52.8679 45.4714C52.9122 45.4221 53.9552 44.2591 54.9074 42.7432C55.4812 41.8289 55.906 40.97 56.1679 40.1907C56.3331 39.6984 56.4381 39.2286 56.4765 38.7949C56.5238 38.2756 56.4802 37.7924 56.3474 37.3565C56.2081 36.8939 55.9725 36.475 55.6502 36.1111V36.1111Z" fill="#A07FFF"/>
<path d="M174.847 68.4825C176.45 68.7486 177.534 70.2639 177.268 71.867C177.002 73.47 175.487 74.5538 173.884 74.2877C172.28 74.0215 171.197 72.5062 171.463 70.9032C171.729 69.3001 173.244 68.2163 174.847 68.4825Z" fill="#EBB449"/>
</svg>
