<svg width="503" height="215" viewBox="0 0 503 215" fill="none" xmlns="http://www.w3.org/2000/svg">
<path opacity="0.5" d="M502.902 44.7383C502.902 69.3053 483.068 89.2209 458.601 89.2209C434.135 89.2209 414.301 69.3053 414.301 44.7383C414.301 20.1713 434.135 0.255737 458.601 0.255737C483.068 0.255737 502.902 20.1713 502.902 44.7383Z" fill="#E19500"/>
<path d="M245.938 136.197C245.938 138.08 244.418 139.606 242.543 139.606C240.669 139.606 239.149 138.08 239.149 136.197C239.149 134.315 240.669 132.789 242.543 132.789C244.418 132.789 245.938 134.315 245.938 136.197Z" fill="#568FFF"/>
<path d="M193.164 162.169C193.164 164.052 191.644 165.578 189.769 165.578C187.895 165.578 186.375 164.052 186.375 162.169C186.375 160.287 187.895 158.761 189.769 158.761C191.644 158.761 193.164 160.287 193.164 162.169Z" fill="#568FFF"/>
<path d="M88.8605 158.761C88.8605 160.643 87.3408 162.169 85.4661 162.169C83.5915 162.169 82.0718 160.643 82.0718 158.761C82.0718 156.879 83.5915 155.353 85.4661 155.353C87.3408 155.353 88.8605 156.879 88.8605 158.761Z" fill="#568FFF"/>
<path d="M6.86047 168.986C6.86047 170.868 5.34077 172.394 3.46612 172.394C1.59148 172.394 0.0717773 170.868 0.0717773 168.986C0.0717773 167.103 1.59148 165.578 3.46612 165.578C5.34077 165.578 6.86047 167.103 6.86047 168.986Z" fill="#568FFF"/>
<path d="M56.9967 41.33C56.9967 43.2124 55.477 44.7383 53.6024 44.7383C51.7277 44.7383 50.208 43.2124 50.208 41.33C50.208 39.4477 51.7277 37.9218 53.6024 37.9218C55.477 37.9218 56.9967 39.4477 56.9967 41.33Z" fill="#568FFF"/>
<path d="M235.461 42.6533C233.765 35.375 238.265 28.1051 245.514 26.4155C252.762 24.7259 260.014 29.2564 261.71 36.5347C263.407 43.813 258.906 51.0829 251.658 52.7725C244.409 54.4621 237.158 49.9316 235.461 42.6533Z" fill="#E19500"/>
<path opacity="0.1" fill-rule="evenodd" clip-rule="evenodd" d="M56.9966 95.1798L113.852 93.2608L113.936 95.5243L57.0808 97.4433L56.9966 95.1798Z" fill="#0D1531"/>
<path opacity="0.1" fill-rule="evenodd" clip-rule="evenodd" d="M129.091 112.335L109.023 205.67L106.811 205.187L126.879 111.852L129.091 112.335Z" fill="#0D1531"/>
<path opacity="0.1" fill-rule="evenodd" clip-rule="evenodd" d="M236.596 47.5228L150.715 89.2208L149.732 87.1805L235.613 45.4825L236.596 47.5228Z" fill="#0D1531"/>
<path opacity="0.1" fill-rule="evenodd" clip-rule="evenodd" d="M414.301 54.5047L132.66 96.5676L132.333 94.3268L413.974 52.2639L414.301 54.5047Z" fill="#0D1531"/>
<path opacity="0.1" fill-rule="evenodd" clip-rule="evenodd" d="M238.335 136.197L149.144 102.149L149.958 100.036L239.149 134.084L238.335 136.197Z" fill="#0D1531"/>
<path d="M104.785 102.277C101.224 87 110.671 71.7409 125.885 68.1946C141.099 64.6482 156.32 74.1576 159.881 89.4342C163.441 104.711 153.995 119.97 138.78 123.516C123.566 127.063 108.346 117.553 104.785 102.277Z" fill="#568FFF"/>
<path d="M101.96 209.299C101.248 206.243 103.137 203.192 106.18 202.482C109.223 201.773 112.267 203.675 112.979 206.73C113.691 209.786 111.802 212.838 108.759 213.547C105.716 214.256 102.672 212.354 101.96 209.299Z" fill="#568FFF"/>
<path d="M37.9953 98.0496C36.996 91.4333 41.5275 85.2629 48.1166 84.2678C54.7058 83.2726 60.8574 87.8295 61.8567 94.4458C62.8559 101.062 58.3245 107.233 51.7353 108.228C45.1462 109.223 38.9945 104.666 37.9953 98.0496Z" fill="#6EC682"/>
<path opacity="0.5" d="M32.831 210.287C32.831 211.542 31.8179 212.559 30.5681 212.559C29.3183 212.559 28.3052 211.542 28.3052 210.287C28.3052 209.032 29.3183 208.015 30.5681 208.015C31.8179 208.015 32.831 209.032 32.831 210.287Z" fill="#568FFF"/>
<path opacity="0.5" d="M324.831 21.084C324.831 22.3389 323.818 23.3561 322.568 23.3561C321.318 23.3561 320.305 22.3389 320.305 21.084C320.305 19.8291 321.318 18.8118 322.568 18.8118C323.818 18.8118 324.831 19.8291 324.831 21.084Z" fill="#568FFF"/>
<path opacity="0.5" d="M337.831 141.878C337.831 143.133 336.818 144.15 335.568 144.15C334.318 144.15 333.305 143.133 333.305 141.878C333.305 140.623 334.318 139.606 335.568 139.606C336.818 139.606 337.831 140.623 337.831 141.878Z" fill="#568FFF"/>
<path opacity="0.5" d="M221.831 95.3521C221.831 96.607 220.818 97.6243 219.568 97.6243C218.318 97.6243 217.305 96.607 217.305 95.3521C217.305 94.0973 218.318 93.08 219.568 93.08C220.818 93.08 221.831 94.0973 221.831 95.3521Z" fill="#568FFF"/>
</svg>
