<svg width="602" height="168" viewBox="0 0 602 168" fill="none" xmlns="http://www.w3.org/2000/svg">
<path opacity="0.1" fill-rule="evenodd" clip-rule="evenodd" d="M504.118 112.762L21.6096 153.923L21.4165 151.659L503.925 110.498L504.118 112.762Z" fill="#0D1531"/>
<path d="M27.2615 153.923C27.2615 161.396 21.2279 167.454 13.7851 167.454C6.34222 167.454 0.308594 161.396 0.308594 153.923C0.308594 146.449 6.34222 140.391 13.7851 140.391C21.2279 140.391 27.2615 146.449 27.2615 153.923Z" fill="#E19500"/>
<path opacity="0.1" fill-rule="evenodd" clip-rule="evenodd" d="M581.725 127.24L525.918 116.203L526.35 113.979L582.157 125.017L581.725 127.24Z" fill="#0D1531"/>
<path opacity="0.1" fill-rule="evenodd" clip-rule="evenodd" d="M515.407 94.1673L556.139 7.82406L558.184 8.79675L517.452 95.14L515.407 94.1673Z" fill="#0D1531"/>
<path d="M536.795 109.48C536.795 125.167 524.131 137.883 508.509 137.883C492.887 137.883 480.223 125.167 480.223 109.48C480.223 93.7943 492.887 81.0781 508.509 81.0781C524.131 81.0781 536.795 93.7943 536.795 109.48Z" fill="#0EA02E"/>
<path d="M563.841 5.89362C563.841 9.03086 561.308 11.5741 558.184 11.5741C555.06 11.5741 552.527 9.03086 552.527 5.89362C552.527 2.75637 555.06 0.213135 558.184 0.213135C561.308 0.213135 563.841 2.75637 563.841 5.89362Z" fill="#6EC682"/>
<path d="M600.882 128.759C600.353 135.429 594.539 140.41 587.896 139.883C581.253 139.357 576.296 133.522 576.825 126.852C577.354 120.182 583.168 115.201 589.811 115.728C596.454 116.254 601.411 122.089 600.882 128.759Z" fill="#6EC682"/>
</svg>
