<svg width="801" height="169" viewBox="0 0 801 169" fill="none" xmlns="http://www.w3.org/2000/svg">
<path d="M620.138 90.5839C620.138 92.4663 618.618 93.9922 616.743 93.9922C614.869 93.9922 613.349 92.4663 613.349 90.5839C613.349 88.7016 614.869 87.1757 616.743 87.1757C618.618 87.1757 620.138 88.7016 620.138 90.5839Z" fill="#568FFF"/>
<path d="M796.406 129.632C795.355 131.193 793.242 131.61 791.687 130.563C790.132 129.516 789.723 127.402 790.775 125.841C791.826 124.279 793.939 123.862 795.494 124.909C797.049 125.956 797.457 128.07 796.406 129.632Z" fill="#568FFF"/>
<path d="M563.59 52.7665C562.726 54.4386 560.675 55.0963 559.01 54.2354C557.345 53.3745 556.695 51.3211 557.56 49.649C558.424 47.9769 560.475 47.3192 562.14 48.1801C563.806 49.0409 564.455 51.0944 563.59 52.7665Z" fill="#568FFF"/>
<path d="M770.62 66.681C768.969 67.5853 766.9 66.9855 766 65.3413C765.099 63.6972 765.708 61.6313 767.358 60.727C769.009 59.8227 771.078 60.4224 771.978 62.0666C772.879 63.7107 772.271 65.7767 770.62 66.681Z" fill="#568FFF"/>
<path d="M567.364 116.556C567.364 118.438 565.844 119.964 563.97 119.964C562.095 119.964 560.575 118.438 560.575 116.556C560.575 114.674 562.095 113.148 563.97 113.148C565.844 113.148 567.364 114.674 567.364 116.556Z" fill="#568FFF"/>
<path d="M738.124 121.702C737.073 123.264 734.96 123.681 733.405 122.634C731.85 121.587 731.442 119.473 732.493 117.911C733.544 116.35 735.657 115.933 737.212 116.98C738.767 118.027 739.176 120.141 738.124 121.702Z" fill="#568FFF"/>
<path d="M176.602 122.61C175.738 124.282 173.687 124.94 172.022 124.079C170.356 123.218 169.707 121.165 170.572 119.493C171.436 117.821 173.487 117.163 175.152 118.024C176.817 118.885 177.467 120.938 176.602 122.61Z" fill="#568FFF"/>
<path d="M463.061 113.148C463.061 115.03 461.541 116.556 459.666 116.556C457.792 116.556 456.272 115.03 456.272 113.148C456.272 111.265 457.792 109.739 459.666 109.739C461.541 109.739 463.061 111.265 463.061 113.148Z" fill="#568FFF"/>
<path d="M7.9742 43.1119C7.10979 44.7841 5.05907 45.4417 3.39378 44.5809C1.72849 43.72 1.07924 41.6666 1.94364 39.9945C2.80805 38.3223 4.85877 37.6647 6.52407 38.5255C8.18936 39.3864 8.8386 41.4398 7.9742 43.1119Z" fill="#568FFF"/>
<path d="M745.197 23.7166C745.197 25.599 743.677 27.1249 741.803 27.1249C739.928 27.1249 738.408 25.599 738.408 23.7166C738.408 21.8343 739.928 20.3083 741.803 20.3083C743.677 20.3083 745.197 21.8343 745.197 23.7166Z" fill="#568FFF"/>
<path d="M110.133 28.6837C109.268 30.3559 107.218 31.0135 105.552 30.1526C103.887 29.2918 103.238 27.2384 104.102 25.5662C104.967 23.8941 107.017 23.2364 108.683 24.0973C110.348 24.9582 110.997 27.0116 110.133 28.6837Z" fill="#568FFF"/>
<path d="M660.16 146.685C659.448 143.63 661.337 140.578 664.38 139.869C667.423 139.16 670.467 141.062 671.179 144.117C671.891 147.172 670.002 150.224 666.959 150.933C663.917 151.643 660.873 149.741 660.16 146.685Z" fill="#568FFF"/>
<path opacity="0.5" d="M630.031 166.673C630.031 167.928 629.018 168.946 627.768 168.946C626.519 168.946 625.505 167.928 625.505 166.673C625.505 165.419 626.519 164.401 627.768 164.401C629.018 164.401 630.031 165.419 630.031 166.673Z" fill="#568FFF"/>
<path opacity="0.5" d="M12.078 91.7268C11.5018 92.8415 10.1346 93.28 9.02441 92.7061C7.91421 92.1321 7.48137 90.7632 8.05764 89.6484C8.63392 88.5337 10.0011 88.0953 11.1113 88.6692C12.2215 89.2431 12.6543 90.612 12.078 91.7268Z" fill="#568FFF"/>
<path opacity="0.5" d="M703.686 2.47043C703.686 3.72533 702.673 4.74262 701.423 4.74262C700.173 4.74262 699.16 3.72533 699.16 2.47043C699.16 1.21554 700.173 0.198242 701.423 0.198242C702.673 0.198242 703.686 1.21554 703.686 2.47043Z" fill="#568FFF"/>
<path opacity="0.5" d="M712.031 96.2644C712.031 97.5193 711.018 98.5366 709.768 98.5366C708.519 98.5366 707.505 97.5193 707.505 96.2644C707.505 95.0095 708.519 93.9922 709.768 93.9922C711.018 93.9922 712.031 95.0095 712.031 96.2644Z" fill="#568FFF"/>
<path opacity="0.5" d="M84.4316 146.44C83.8553 147.555 82.4881 147.994 81.3779 147.42C80.2677 146.846 79.8349 145.477 80.4112 144.362C80.9874 143.247 82.3546 142.809 83.4648 143.383C84.575 143.957 85.0078 145.326 84.4316 146.44Z" fill="#568FFF"/>
<path opacity="0.5" d="M596.031 49.7387C596.031 50.9936 595.018 52.0109 593.768 52.0109C592.519 52.0109 591.505 50.9936 591.505 49.7387C591.505 48.4838 592.519 47.4666 593.768 47.4666C595.018 47.4666 596.031 48.4838 596.031 49.7387Z" fill="#568FFF"/>
<path opacity="0.5" d="M799.221 82.2871C798.52 83.328 797.111 83.606 796.074 82.9081C795.038 82.2101 794.766 80.8004 795.466 79.7594C796.167 78.7185 797.576 78.4405 798.612 79.1384C799.649 79.8364 799.921 81.2461 799.221 82.2871Z" fill="#568FFF"/>
<path opacity="0.5" d="M232.751 76.4195C232.175 77.5343 230.808 77.9727 229.698 77.3988C228.588 76.8249 228.155 75.4559 228.731 74.3412C229.307 73.2264 230.674 72.788 231.785 73.3619C232.895 73.9358 233.328 75.3048 232.751 76.4195Z" fill="#568FFF"/>
<path d="M113.84 83.089C113.84 86.8167 110.83 89.8386 107.118 89.8386C103.405 89.8386 100.396 86.8167 100.396 83.089C100.396 79.3613 103.405 76.3394 107.118 76.3394C110.83 76.3394 113.84 79.3613 113.84 83.089Z" fill="#568FFF"/>
<path opacity="0.2" d="M117.976 83.0889C117.976 89.1106 113.114 93.9922 107.117 93.9922C101.12 93.9922 96.2588 89.1106 96.2588 83.0889C96.2588 77.0672 101.12 72.1857 107.117 72.1857C113.114 72.1857 117.976 77.0672 117.976 83.0889Z" fill="#568FFF"/>
<path opacity="0.5" d="M32.5112 148.459C32.5112 152.18 29.5073 155.196 25.8018 155.196C22.0962 155.196 19.0923 152.18 19.0923 148.459C19.0923 144.738 22.0962 141.722 25.8018 141.722C29.5073 141.722 32.5112 144.738 32.5112 148.459Z" fill="#E19500"/>
<path d="M29.8277 148.459C29.8277 150.691 28.0254 152.501 25.8021 152.501C23.5787 152.501 21.7764 150.691 21.7764 148.459C21.7764 146.226 23.5787 144.417 25.8021 144.417C28.0254 144.417 29.8277 146.226 29.8277 148.459Z" fill="#E19500"/>
<path opacity="0.5" d="M668.75 98.5366C668.75 101.27 666.543 103.486 663.821 103.486C661.099 103.486 658.892 101.27 658.892 98.5366C658.892 95.8032 661.099 93.5874 663.821 93.5874C666.543 93.5874 668.75 95.8032 668.75 98.5366Z" fill="#E19500"/>
<path d="M666.779 98.5366C666.779 100.177 665.455 101.506 663.822 101.506C662.188 101.506 660.864 100.177 660.864 98.5366C660.864 96.8966 662.188 95.5671 663.822 95.5671C665.455 95.5671 666.779 96.8966 666.779 98.5366Z" fill="#E19500"/>
<path opacity="0.5" d="M524.96 7.41964C524.96 10.153 522.753 12.3688 520.031 12.3688C517.309 12.3688 515.102 10.153 515.102 7.41964C515.102 4.68628 517.309 2.47046 520.031 2.47046C522.753 2.47046 524.96 4.68628 524.96 7.41964Z" fill="#E19500"/>
<path d="M522.989 7.4197C522.989 9.05972 521.665 10.3892 520.032 10.3892C518.398 10.3892 517.074 9.05972 517.074 7.4197C517.074 5.77969 518.398 4.4502 520.032 4.4502C521.665 4.4502 522.989 5.77969 522.989 7.4197Z" fill="#E19500"/>
<path opacity="0.5" d="M205 40.7711C205 45.0452 201.549 48.5101 197.293 48.5101C193.036 48.5101 189.585 45.0452 189.585 40.7711C189.585 36.497 193.036 33.0321 197.293 33.0321C201.549 33.0321 205 36.497 205 40.7711Z" fill="#0EA02E"/>
<path d="M201.917 40.7711C201.917 43.3356 199.846 45.4145 197.292 45.4145C194.738 45.4145 192.668 43.3356 192.668 40.7711C192.668 38.2066 194.738 36.1277 197.292 36.1277C199.846 36.1277 201.917 38.2066 201.917 40.7711Z" fill="#0EA02E"/>
<path opacity="0.5" d="M643.183 22.5386C643.183 26.8127 639.733 30.2775 635.476 30.2775C631.219 30.2775 627.769 26.8127 627.769 22.5386C627.769 18.2644 631.219 14.7996 635.476 14.7996C639.733 14.7996 643.183 18.2644 643.183 22.5386Z" fill="#0EA02E"/>
<path d="M640.1 22.5385C640.1 25.103 638.029 27.1819 635.475 27.1819C632.921 27.1819 630.851 25.103 630.851 22.5385C630.851 19.9741 632.921 17.8951 635.475 17.8951C638.029 17.8951 640.1 19.9741 640.1 22.5385Z" fill="#0EA02E"/>
<path opacity="0.5" d="M54.5209 72.3227C54.5209 70.6341 53.1576 69.2651 51.4758 69.2651C49.794 69.2651 48.4307 70.6341 48.4307 72.3227C48.4307 74.0114 49.794 75.3804 51.4758 75.3804C53.1576 75.3804 54.5209 74.0114 54.5209 72.3227Z" fill="#0EA02E"/>
<path d="M53.3026 72.3228C53.3026 71.3096 52.4846 70.4882 51.4755 70.4882C50.4664 70.4882 49.6484 71.3096 49.6484 72.3228C49.6484 73.336 50.4664 74.1573 51.4755 74.1573C52.4846 74.1573 53.3026 73.336 53.3026 72.3228Z" fill="#0EA02E"/>
<path opacity="0.5" d="M216.561 152.328C216.561 154.465 214.836 156.198 212.707 156.198C210.579 156.198 208.854 154.465 208.854 152.328C208.854 150.191 210.579 148.459 212.707 148.459C214.836 148.459 216.561 150.191 216.561 152.328Z" fill="#0EA02E"/>
<path d="M215.019 152.328C215.019 153.611 213.984 154.65 212.707 154.65C211.43 154.65 210.395 153.611 210.395 152.328C210.395 151.046 211.43 150.007 212.707 150.007C213.984 150.007 215.019 151.046 215.019 152.328Z" fill="#0EA02E"/>
</svg>
