<svg width="208" height="145" viewBox="0 0 208 145" fill="none" xmlns="http://www.w3.org/2000/svg">
<path d="M169.498 58.2185C171.391 55.8661 172.419 52.81 172.151 49.5613C171.598 42.8445 165.711 37.8479 159.003 38.401C152.296 38.9542 147.307 44.8476 147.861 51.5644C148.415 58.2812 154.302 63.2778 161.009 62.7246C163.388 62.5285 165.55 61.6609 167.326 60.3233L172.166 63.0941L169.498 58.2185Z" fill="#628AFF"/>
<circle cx="32.7109" cy="93.8785" r="10.0303" fill="#B89FFF"/>
<circle r="30.3491" transform="matrix(1 0 0 -1 148.97 98.1233)" fill="#EBB449"/>
<circle cx="62.3455" cy="33.7647" r="13.7264" fill="#86CF97"/>
<circle cx="36.8139" cy="65.7197" r="5.9272" fill="#628AFF"/>
<path d="M157.649 82.8792C150.667 112.756 120.788 131.316 90.9109 124.335C61.0341 117.353 42.4739 87.4735 49.4555 57.5967C56.437 27.7199 86.3166 9.15967 116.193 16.1412C146.07 23.1228 164.63 53.0024 157.649 82.8792Z" fill="#EB7171"/>
<path fill-rule="evenodd" clip-rule="evenodd" d="M106.776 97.7498C76.3164 85.7636 73.2324 72.9129 72.5385 67.079C71.8446 61.2452 77.5166 53.8988 86.6545 52.8119C91.3358 52.255 94.8142 53.1187 97.3267 54.3931C99.7186 55.6063 101.235 57.1917 102.081 58.2781C102.648 57.0237 103.75 55.1267 105.791 53.3863C107.934 51.5581 111.113 49.9026 115.794 49.3458C124.932 48.2588 132.169 54.0697 132.863 59.9036C133.557 65.7375 133.574 78.953 106.776 97.7498ZM101.047 49.5908C103.997 46.7696 108.458 44.1762 115.086 43.3878C126.649 42.0124 137.64 49.2673 138.821 59.1949C139.265 62.9218 139.421 68.9617 135.473 76.694C131.626 84.2289 124.117 92.9152 110.221 102.662L107.58 104.514L104.579 103.333C88.7846 97.1179 79.4477 90.4353 73.9404 84.0131C68.2888 77.4226 67.0238 71.5146 66.5805 67.7877C65.3996 57.8601 74.3826 48.2293 85.9458 46.8539C92.5739 46.0655 97.5181 47.5402 101.047 49.5908Z" fill="white"/>
</svg>
