<svg width="208" height="144" viewBox="0 0 208 144" fill="none" xmlns="http://www.w3.org/2000/svg">
<circle cx="153.532" cy="18.182" r="6.87598" fill="#EBB449"/>
<circle cx="83.9999" cy="106.758" r="25.2294" fill="#EB7171"/>
<path d="M28.4895 75.241C30.0925 75.5072 31.1763 77.0225 30.9102 78.6255C30.644 80.2286 29.1287 81.3124 27.5257 81.0462C25.9226 80.7801 24.8388 79.2648 25.1049 77.6617C25.3711 76.0587 26.8864 74.9749 28.4895 75.241Z" fill="#B89FFF"/>
<path d="M39.8336 80.3569C33.7847 72.8387 30.4971 63.0715 31.3533 52.6887C33.1235 31.222 51.9369 15.2529 73.374 17.0207C94.8112 18.7885 110.754 37.6238 108.984 59.0904C107.214 80.5571 88.4006 96.5262 66.9634 94.7584C59.3621 94.1315 52.4515 91.3588 46.7764 87.0837L31.3073 95.9391L39.8336 80.3569Z" fill="#628AFF"/>
<path opacity="0.7" d="M82.447 40.0087L56.7082 40.0087C55.9212 40.0113 55.1535 40.2527 54.5066 40.701C53.8598 41.1493 53.3642 41.7834 53.0854 42.5194L47.7527 56.7379C47.6718 56.955 47.6305 57.185 47.6309 57.4168V61.2852C47.6309 63.4187 49.3659 65.1537 51.4993 65.1537H62.3542L60.184 71.6662C59.9905 72.2477 59.9377 72.8668 60.0298 73.4727C60.1219 74.0786 60.3564 74.654 60.714 75.1517C61.4413 76.1575 62.6134 76.7591 63.8552 76.7591H66.9731C67.5476 76.7591 68.0911 76.5037 68.4606 76.0627L77.5514 65.1537H82.447C84.5804 65.1537 86.3154 63.4187 86.3154 61.2852V43.8772C86.3154 41.7437 84.5804 40.0087 82.447 40.0087ZM66.066 72.8906H63.8513L66.8726 63.8307C66.9694 63.5401 66.9957 63.2306 66.9496 62.9278C66.9034 62.625 66.7859 62.3375 66.6069 62.0889C66.4278 61.8404 66.1923 61.6379 65.9197 61.4982C65.6471 61.3585 65.3452 61.2855 65.0389 61.2852H51.4993V57.7669L56.7082 43.8772H74.7101V62.5193L66.066 72.8906ZM78.5785 61.2852V43.8772H82.447L82.4489 61.2852H78.5785Z" fill="white"/>
<path d="M168.698 104.38C176.975 94.6708 181.509 82.0856 180.408 68.7341C178.131 41.1297 152.631 20.7026 123.451 23.1089C94.2712 25.5152 72.4616 49.8437 74.738 77.4481C77.0144 105.053 102.515 125.48 131.695 123.073C142.041 122.22 151.462 118.611 159.21 113.076L180.204 124.372L168.698 104.38Z" fill="#86CF97"/>
<path d="M105.226 98.9969L144.552 98.9969C145.754 98.993 146.927 98.6241 147.916 97.9392C148.904 97.2543 149.661 96.2855 150.087 95.161L158.235 73.4369C158.358 73.1051 158.421 72.7537 158.421 72.3996L158.421 66.4891C158.421 63.2294 155.77 60.5785 152.51 60.5785L135.925 60.5785L139.241 50.6282C139.537 49.7397 139.618 48.7938 139.477 47.8681C139.336 46.9424 138.978 46.0632 138.431 45.3028C137.32 43.766 135.529 42.8469 133.632 42.8469L128.868 42.8469C127.991 42.8469 127.16 43.237 126.596 43.9108L112.706 60.5785L105.226 60.5785C101.967 60.5785 99.3156 63.2294 99.3156 66.489L99.3156 93.0864C99.3156 96.3461 101.967 98.9969 105.226 98.9969ZM130.254 48.7575L133.638 48.7575L129.022 62.5999C128.874 63.044 128.834 63.5168 128.904 63.9794C128.975 64.4421 129.154 64.8814 129.428 65.2611C129.701 65.6409 130.061 65.9502 130.478 66.1637C130.894 66.3772 131.356 66.4887 131.824 66.4891L152.51 66.4891L152.51 71.8647L144.552 93.0864L117.047 93.0864L117.047 64.6036L130.254 48.7575ZM111.137 66.489L111.137 93.0864L105.226 93.0864L105.223 66.489L111.137 66.489Z" fill="white"/>
</svg>
